<svg id="Слой_1" data-name="Слой 1" xmlns="http://www.w3.org/2000/svg" viewBox="0 0 271.82 114.59">
    <defs>
        <style>.cls-1{fill:#ce7e21;}.cls-2{fill:#fff;}</style>
    </defs>
    <title>whitelogo</title>
    <path class="cls-1"
          d="M112.83,97.24V136a18.51,18.51,0,0,0,9.23,16l33.59,19.39a18.51,18.51,0,0,0,18.51,0l33.59-19.39A18.51,18.51,0,0,0,217,136V97.24a18.51,18.51,0,0,0-9.23-16L174.19,61.81a18.51,18.51,0,0,0-18.51,0L122.09,81.2A18.51,18.51,0,0,0,112.83,97.24Z"
          transform="translate(-112.83 -59.33)"/>
    <path class="cls-2"
          d="M246,132.17h-6.6v27.14h1.89V148.1h4.17a11.9,11.9,0,0,0,7.48-2.07,7.23,7.23,0,0,0,2.66-6.09Q255.63,132.17,246,132.17ZM251.58,145q-2,1.51-6.59,1.51h-3.66V133.84h4.47a9.55,9.55,0,0,1,5.95,1.51,5.56,5.56,0,0,1,1.93,4.65,5.71,5.71,0,0,1-2.1,4.95Zm11.82-12.78h-1.94v27.14H276.2v-1.78H263.38Zm35.48,17.74a7.41,7.41,0,0,1-8.1,8.09,7.54,7.54,0,0,1-8.27-8.27V132.17h-1.91v17.51a10,10,0,0,0,2.63,7.37,9.86,9.86,0,0,0,7.31,2.64A10.28,10.28,0,0,0,298,157a9.75,9.75,0,0,0,2.69-7.31V132.17h-1.84ZM320,146.81a22.85,22.85,0,0,0-4.74-2.12,24.28,24.28,0,0,1-4.24-1.85,4.37,4.37,0,0,1-2.33-4.2,4.56,4.56,0,0,1,1.77-3.79,7.51,7.51,0,0,1,4.76-1.39,16.58,16.58,0,0,1,6.42,1.41l.68-1.63a17.78,17.78,0,0,0-7.14-1.45,9.38,9.38,0,0,0-6.09,1.93,6.09,6.09,0,0,0-2.38,5,6.17,6.17,0,0,0,1.58,4.42,14.62,14.62,0,0,0,5.71,3.09,25.89,25.89,0,0,1,4.28,1.8,5.91,5.91,0,0,1,2.11,1.85,4.65,4.65,0,0,1,.65,2.55,4.87,4.87,0,0,1-1.95,4,8.31,8.31,0,0,1-5.28,1.54,19.09,19.09,0,0,1-7.44-1.22v1.89a20.57,20.57,0,0,0,7.59,1.1,10.26,10.26,0,0,0,6.6-2,6.53,6.53,0,0,0,2.44-5.39,6.41,6.41,0,0,0-.73-3.17,6.8,6.8,0,0,0-2.29-2.36Zm-52.63-29.52V96.5c0-7.37-4-11.93-10.84-11.93-4.59,0-7.31,2.44-9.36,5.15V73.54h-9.07V117.3h9.07V99.37c0-4.31,2.21-6.53,5.67-6.53s5.48,2.22,5.48,6.53V117.3ZM291,84.56c-10,0-17.35,7.49-17.35,16.72S281,118,290.86,118s17.35-7.49,17.35-16.72S300.88,84.57,291,84.57Zm0,25.59a8.53,8.53,0,0,1-8.41-8.64q0-.11,0-.23c0-4.87,3.09-8.87,8.29-8.87a8.53,8.53,0,0,1,8.41,8.64q0,.11,0,.23c0,4.86-3.12,8.88-8.3,8.88Zm34.34-33.2h-9V85.1h-3.81v7.79h3.81v15.22c0,7.43,3.75,9.65,9.3,9.65a13.31,13.31,0,0,0,7.15-1.85V108.6a9.18,9.18,0,0,1-4.47,1.13c-2,0-2.92-1-2.92-3.12V93h7.51V85.1h-7.54Zm27.54,7.62c-9.3,0-15.84,7.55-15.84,16.72,0,10,7.09,16.72,16.69,16.72a16,16,0,0,0,13-6l-5.19-4.62a10.44,10.44,0,0,1-7.75,3.3,7.42,7.42,0,0,1-7.81-6.29h22.24c0-.84.12-1.68.12-2.44,0-9.07-4.86-17.39-15.54-17.39ZM346,98.7c.72-4.13,3.16-6.84,6.91-6.84s6.2,2.75,6.74,6.84Zm29.62-25.17v43.76h9.07V73.54Z"
          transform="translate(-112.83 -59.33)"/>
    <polygon class="cls-2"
             points="68.36 73.98 35.79 73.98 35.79 42.22 18.14 42.22 18.14 97.87 35.79 108.06 35.79 90.26 68.36 90.26 68.36 108.06 86.01 97.87 86.01 42.22 68.36 42.22 68.36 73.98"/>
</svg>