<svg xmlns="http://www.w3.org/2000/svg" width="169" height="45" viewBox="0 0 169 45">
  <metadata><?xpacket begin="﻿" id="W5M0MpCehiHzreSzNTczkc9d"?>
<x:xmpmeta xmlns:x="adobe:ns:meta/" x:xmptk="Adobe XMP Core 5.6-c138 79.159824, 2016/09/14-01:09:01        ">
   <rdf:RDF xmlns:rdf="http://www.w3.org/1999/02/22-rdf-syntax-ns#">
      <rdf:Description rdf:about=""/>
   </rdf:RDF>
</x:xmpmeta>
                                                                                                    
                                                                                                    
                                                                                                    
                                                                                                    
                                                                                                    
                                                                                                    
                                                                                                    
                                                                                                    
                                                                                                    
                                                                                                    
                                                                                                    
                                                                                                    
                                                                                                    
                                                                                                    
                                                                                                    
                                                                                                    
                                                                                                    
                                                                                                    
                                                                                                    
                                                                                                    
                           
<?xpacket end="w"?></metadata>
<defs>
    <style>
      .cls-1 {
        fill: #ffac41;
      }

      .cls-1, .cls-2 {
        fill-rule: evenodd;
      }

      .cls-2 {
        fill: #fff;
      }
    </style>
  </defs>
  <path class="cls-1" d="M37.348,36.4l-3.771,2.175V17.335H26.638V29.887h-12.8V17.335H6.9V38.307L3.619,36.422A7.276,7.276,0,0,1-.014,30.131V14.889A7.276,7.276,0,0,1,3.631,8.582L16.852,0.957a7.291,7.291,0,0,1,7.286,0L37.356,8.6a7.278,7.278,0,0,1,3.633,6.292V30.111A7.277,7.277,0,0,1,37.348,36.4ZM22.026,8.648l-1.9-3.368-1.9,3.368-3.854.726,2.683,2.807L16.578,16l3.553-1.633L23.685,16,23.2,12.181l2.683-2.807Zm4.612,33.93-2.512,1.449a7.293,7.293,0,0,1-7.286,0L13.835,42.3V36.322h12.8v6.257Z"/>
  <path id="hotello" class="cls-2" d="M64.583,16.226a7.32,7.32,0,0,0-3.953,1.067,5.98,5.98,0,0,0-2.46,2.965V10.2H53.386V35.267H58.17V25.306a5.392,5.392,0,0,1,1.222-3.795,4.223,4.223,0,0,1,3.257-1.321A4.106,4.106,0,0,1,65.8,21.427,4.9,4.9,0,0,1,66.958,24.9V35.267h4.75V24.357a8.614,8.614,0,0,0-1.934-6,6.661,6.661,0,0,0-5.192-2.134h0ZM84.6,16.26a10.441,10.441,0,0,0-4.937,1.152,8.436,8.436,0,0,0-3.444,3.337,10.125,10.125,0,0,0-1.255,5.133A10.031,10.031,0,0,0,76.221,31a8.579,8.579,0,0,0,3.444,3.337,11.011,11.011,0,0,0,9.874,0A8.583,8.583,0,0,0,92.983,31a10.036,10.036,0,0,0,1.255-5.116,10.13,10.13,0,0,0-1.255-5.133,8.44,8.44,0,0,0-3.444-3.337A10.441,10.441,0,0,0,84.6,16.26h0Zm0,4.133A4.6,4.6,0,0,1,88,21.8a5.566,5.566,0,0,1,1.391,4.082A5.565,5.565,0,0,1,88,29.964a4.8,4.8,0,0,1-6.786,0,5.562,5.562,0,0,1-1.391-4.083A5.564,5.564,0,0,1,81.209,21.8,4.593,4.593,0,0,1,84.6,20.393h0Zm21.207,10.774a2.533,2.533,0,0,1-1.832-.542,2.641,2.641,0,0,1-.543-1.9v-8.2h4.207V16.5h-4.207V11.855H98.65V16.5H96.037v4.032H98.65V28.66q0,3.557,1.679,5.082a6.955,6.955,0,0,0,4.835,1.525h2.511v-4.1h-1.866Zm22.971-6a9.183,9.183,0,0,0-1.137-4.591,8.13,8.13,0,0,0-3.223-3.168,9.92,9.92,0,0,0-4.869-1.152,10.141,10.141,0,0,0-4.886,1.152,8.093,8.093,0,0,0-3.326,3.337,10.586,10.586,0,0,0-1.187,5.133A10.487,10.487,0,0,0,111.339,31a8.226,8.226,0,0,0,3.326,3.337,10.767,10.767,0,0,0,9.144.288,8.327,8.327,0,0,0,3.139-2.439,8.086,8.086,0,0,0,1.6-3.523h-5.056a3.6,3.6,0,0,1-1.408,2.2,4.539,4.539,0,0,1-2.766.813,4.366,4.366,0,0,1-3.121-1.186,5.165,5.165,0,0,1-1.358-3.693H128.61a9.045,9.045,0,0,0,.17-1.626h0Zm-4.818-.474h-9.128a4.85,4.85,0,0,1,1.459-3.49,4.706,4.706,0,0,1,3.258-1.186,4.6,4.6,0,0,1,3.206,1.186,4.206,4.206,0,0,1,1.2,3.49h0Zm8.211-14.5V35.267h4.784V10.2h-4.784Zm9.127,0V35.267h4.785V10.2H141.3Zm17.814,6.064a10.442,10.442,0,0,0-4.937,1.152,8.439,8.439,0,0,0-3.444,3.337,10.125,10.125,0,0,0-1.255,5.133A10.031,10.031,0,0,0,150.733,31a8.582,8.582,0,0,0,3.444,3.337,11.011,11.011,0,0,0,9.874,0A8.582,8.582,0,0,0,167.5,31a10.032,10.032,0,0,0,1.256-5.116,10.126,10.126,0,0,0-1.256-5.133,8.439,8.439,0,0,0-3.444-3.337,10.442,10.442,0,0,0-4.937-1.152h0Zm0,4.133a4.594,4.594,0,0,1,3.393,1.406,5.563,5.563,0,0,1,1.391,4.082,5.562,5.562,0,0,1-1.391,4.083,4.8,4.8,0,0,1-6.786,0,5.562,5.562,0,0,1-1.391-4.083,5.563,5.563,0,0,1,1.391-4.082,4.592,4.592,0,0,1,3.393-1.406h0Z"/>
</svg>
