<svg xmlns="http://www.w3.org/2000/svg" xmlns:xlink="http://www.w3.org/1999/xlink" viewBox="0 0 137 150.49">
    <defs>
        <style>.cls-1{fill:none;}.cls-2{fill:#ce7e21;}.cls-3{clip-path:url(#clip-path);}.cls-4{fill:#fff;}</style>
        <clipPath id="clip-path" transform="translate(-31 -8.74)">
            <polygon class="cls-1"
                     points="59.95 71.21 80.13 71.21 80.13 107.51 117.35 107.51 117.35 71.21 137.53 71.21 137.53 162.94 117.35 162.94 117.35 126.12 80.13 126.12 80.13 162.94 59.95 162.94 59.95 71.21"/>
        </clipPath>
    </defs>
    <title>ico</title>
    <path class="cls-2"
          d="M31,58v50.42a24.07,24.07,0,0,0,12,20.85L86.67,154.5a24.07,24.07,0,0,0,24.07,0l43.67-25.21a24.07,24.07,0,0,0,12-20.85V58a24.07,24.07,0,0,0-12-20.85L110.77,12A24.07,24.07,0,0,0,86.7,12L43,37.17A24.07,24.07,0,0,0,31,58Z"
          transform="translate(-31 -8.74)"/>
    <g class="cls-3">
        <path class="cls-4"
              d="M32.5,59.52v50.42a24.07,24.07,0,0,0,12,20.85L88.17,156a24.07,24.07,0,0,0,24.07,0L156,130.73a24.07,24.07,0,0,0,12-20.85V59.52a24.07,24.07,0,0,0-12-20.86l-43.73-25.2a24.07,24.07,0,0,0-24.07,0L44.54,38.66A24.07,24.07,0,0,0,32.5,59.52Z"
              transform="translate(-31 -8.74)"/>
    </g>
</svg>